<svg xmlns="http://www.w3.org/2000/svg" xmlns:xlink="http://www.w3.org/1999/xlink" fill="none" version="1.1" width="16" height="15.999999046325684" viewBox="0 0 16 15.999999046325684"><defs><clipPath id="master_svg0_2838_2618"><rect x="0" y="0" width="16" height="15.999999046325684" rx="0"/></clipPath></defs><g clip-path="url(#master_svg0_2838_2618)"><g><path d="M15.2956,11.6147Q15.5,9.89661,15.5,8.14808C15.5,7.73386,15.1642,7.39808,14.75,7.39808C14.3358,7.39808,14,7.73386,14,8.14808Q14,9.8077,13.8061,11.4375Q13.559,13.5147,11.488,13.7767Q9.72315,14,7.95873,14Q6.23936,14,4.51966,13.788Q2.37711,13.5238,2.16,11.3623Q2,9.76934,2,8.14808Q2,6.437,2.17821,4.69402Q2.3964600000000003,2.55948,4.44447,2.25838Q6.20189,2,7.95873,2C8.37294,2,8.70873,1.66421,8.70873,1.25C8.70873,0.8357859999999999,8.37294,0.5,7.95873,0.5Q6.09221,0.5,4.22628,0.77433Q1.023013,1.245275,0.685993,4.54145Q0.5,6.36052,0.5,8.14808Q0.5,9.84448,0.667507,11.5122Q1.004365,14.866,4.33612,15.2767Q6.14724,15.5,7.95873,15.5Q9.81766,15.5,11.6762,15.2649Q14.9101,14.8557,15.2956,11.6147ZM12.038,2.0888400000000003C11.8203,2.18917,11.8203,2.49851,12.038,2.59884L12.971,3.0289L13.4011,3.96193C13.5014,4.179600000000001,13.8108,4.179600000000001,13.9111,3.96193L14.3412,3.0289L15.2742,2.59884C15.4919,2.49851,15.4919,2.18917,15.2742,2.0888400000000003L14.3412,1.65878L13.9111,0.725747C13.8108,0.50808426,13.5014,0.50808426,13.4011,0.725747L12.971,1.65878L12.038,2.0888400000000003ZM6.35075,5.82298C6.13308,5.92331,6.13308,6.23266,6.35075,6.33298L8.62036,7.37911L9.66649,9.64872C9.76682,9.86639,10.07616,9.86639,10.17649,9.64872L11.2226,7.37911L13.4922,6.33298C13.7099,6.23266,13.7099,5.92331,13.4922,5.82298L11.2226,4.77686L10.17649,2.50724C10.07616,2.28958,9.76682,2.28958,9.66649,2.50724L8.62036,4.77686L6.35075,5.82298Z" fill-rule="evenodd" fill="#414751" fill-opacity="1"/></g></g></svg>