<svg xmlns="http://www.w3.org/2000/svg" xmlns:xlink="http://www.w3.org/1999/xlink" fill="none" version="1.1" width="16" height="16" viewBox="0 0 16 16"><g><g><g><g><path d="M12.960624096679688,8.207680859375Q14.726124096679687,10.822030859375,13.034824096679687,14.784330859375Q12.974524096679687,14.925330859375,12.974524096679687,15.078730859375Q12.974524096679687,15.152630859375,12.988924096679687,15.225030859375Q13.003424096679687,15.297530859375,13.031624096679687,15.365730859375Q13.059924096679687,15.434030859375,13.100924096679687,15.495430859375Q13.142024096679688,15.556830859375,13.194224096679687,15.609030859375Q13.246424096679688,15.661330859375,13.307924096679688,15.702330859375Q13.369324096679687,15.743330859375,13.437524096679688,15.771630859375Q13.505824096679687,15.799930859375,13.578224096679687,15.814330859375Q13.650724096679687,15.828730859375,13.724524096679687,15.828730859375Q13.834824096679688,15.828730859375,13.940324096679687,15.797030859375Q14.045924096679688,15.765330859375,14.137924096679688,15.704530859375Q14.229824096679687,15.643830859375,14.300424096679688,15.559230859375Q14.371024096679687,15.474530859375,14.414324096679687,15.373230859375Q16.63252409667969,10.176800859375,13.770724096679688,6.786640859375L13.339124096679688,7.693610859375Q13.186724096679688,8.013920859375,12.960624096679688,8.207680859375ZM10.033384096679686,1.894770859375Q9.805214096679688,1.732220859375,9.558914096679688,1.5747808593750001L9.529084096679687,1.555710859375L9.497594096679688,1.539536859375Q7.732174096679688,0.632947759375,5.413014096679687,0.609170258075L5.405324096679688,0.609130859375Q5.331454096679687,0.609130859375,5.259004096679687,0.623541859375Q5.1865540966796875,0.637952959375,5.1183040966796876,0.666221159375Q5.050064096679687,0.694489459375,4.988644096679687,0.735528859375Q4.927224096679687,0.7765678593750001,4.874994096679687,0.828800859375Q4.822754096679688,0.881033859375,4.781724096679687,0.942452859375Q4.740684096679688,1.003872859375,4.712414096679687,1.072117859375Q4.684144096679688,1.1403638593749998,4.669734096679687,1.212812859375Q4.655324096679688,1.285261859375,4.655324096679688,1.359130859375Q4.655324096679688,1.432513859375,4.6695440966796875,1.504505859375Q4.683774096679688,1.5764978593749999,4.711674096679687,1.644370859375Q4.739584096679687,1.712230859375,4.780124096679687,1.773410859375Q4.820654096679688,1.834580859375,4.872284096679687,1.886730859375Q4.923904096679688,1.938890859375,4.984654096679687,1.980050859375Q5.045414096679687,2.021210859375,5.112994096679687,2.049810859375Q5.180574096679687,2.078420859375,5.252414096679687,2.0933808593750003Q5.324254096679688,2.1083408593749997,5.397634096679687,2.1090908593749997Q7.1437840966796875,2.1269908593749998,8.483434096679687,2.717190859375Q8.579154096679687,2.648590859375,8.690994096679688,2.590620859375L10.033384096679686,1.894770859375ZM11.107524096679688,5.298130859375L11.042894096679687,5.147430859375L11.024034096679687,5.136560859375L11.023984096679687,5.136480859375L11.042954096679688,5.147410859375L11.107984096679688,5.299060859375L11.107524096679688,5.298130859375ZM11.664214096679688,6.596220859375L11.500984096679687,6.215610859375L11.483434096679687,6.174680859375L11.483054096679687,6.173630859375L11.664654096679687,6.597090859375L11.664214096679688,6.596220859375ZM11.051014096679687,2.729900859375L11.040614096679688,2.751730859375L11.040674096679687,2.751710859375L11.051044096679687,2.729940859375L11.051014096679687,2.729900859375ZM4.089104096679687,2.714870859375Q4.107684096679687,2.632960859375,4.107684096679687,2.5489708593750002Q4.107684096679687,2.475100859375,4.0932740966796874,2.402650859375Q4.078864096679688,2.3302108593749997,4.050594096679688,2.261960859375Q4.022324096679688,2.193710859375,3.9812840966796874,2.132290859375Q3.9402440966796872,2.070870859375,3.8880140966796874,2.018640859375Q3.8357840966796877,1.966410859375,3.7743640966796876,1.925370859375Q3.7129440966796876,1.884330859375,3.6446940966796877,1.856060859375Q3.5764540966796874,1.827790859375,3.5040040966796875,1.813380859375Q3.4315510966796876,1.798970859375,3.3576830966796876,1.798970859375Q3.2943570966796876,1.798970859375,3.2319280966796873,1.809590859375Q3.1694990966796874,1.820210859375,3.1097340966796874,1.841140859375Q3.0499690966796873,1.862080859375,2.9945600966796873,1.892740859375Q2.9391520966796874,1.923400859375,2.8896690966796874,1.962920859375Q2.8401850966796873,2.002430859375,2.7980290966796875,2.049690859375Q2.7558720966796875,2.096940859375,2.7222350966796873,2.150590859375Q2.6885980966796876,2.204250859375,2.6644340966796873,2.262780859375Q2.6402690966796873,2.321310859375,2.6262620966796875,2.383070859375Q2.1195910966796876,4.616880859375,3.2865050966796874,6.661570859375Q4.352804096679687,8.529950859374999,5.784494096679687,8.825320859375Q6.592394096679688,8.992000859375,6.764924096679687,9.397310859375Q7.183224096679687,11.146930859375,6.298484096679688,12.774330859375Q5.6564540966796875,13.955330859375,5.0777640966796875,14.238230859375L5.076674096679687,14.238730859375Q4.9819040966796875,14.284930859375,4.903554096679688,14.355530859375Q4.825194096679688,14.426030859375,4.7693240966796875,14.515430859375Q4.713444096679687,14.604830859375,4.684384096679688,14.706130859375Q4.655324096679688,14.807530859375,4.655324096679688,14.912930859375Q4.655324096679688,14.986830859375,4.669734096679687,15.059230859375Q4.684144096679688,15.131730859375,4.712414096679687,15.199930859375Q4.740674096679688,15.268230859375,4.781714096679687,15.329630859375Q4.822754096679688,15.391030859375,4.874994096679687,15.443230859375Q4.927224096679687,15.495530859375,4.988644096679687,15.536530859375Q5.050064096679687,15.577530859375,5.1183040966796876,15.605830859375Q5.1865540966796875,15.634130859375,5.259004096679687,15.648530859375Q5.331454096679687,15.662930859375,5.405324096679688,15.662930859375Q5.578394096679688,15.662930859375,5.733974096679688,15.587130859375Q6.744494096679688,15.094430859375,7.6163340966796875,13.490730859375Q8.775964096679687,11.357730859375,8.223764096679687,9.048350859375Q8.197034096679687,8.936550859375,8.157164096679686,8.838790859375Q7.687054096679687,7.686250859375,6.087574096679687,7.356260859375Q5.319644096679688,7.197830859375,4.589274096679688,5.918070859375Q3.7115140966796876,4.380050859375,4.089034096679687,2.715160859375L4.089104096679687,2.714870859375Z" fill-rule="evenodd" fill="#414751" fill-opacity="1"/></g></g><g><path d="M9.974179203125,7.283299221435547Q10.936818203125,7.691724221435547,11.409048203125,8.798421221435547Q11.800638203125,9.716143221435548,11.778638203125,10.947193221435548Q11.757838203125,12.110643221435547,11.376508203125,13.264823221435547Q10.975098203125,14.479733221435547,10.271419203125,15.375283221435547L10.270528203125,15.376413221435547Q10.217893203125,15.443363221435547,10.151586203125,15.496813221435547Q10.085280203125,15.550263221435547,10.008677203125,15.587483221435548Q9.932074203125,15.624693221435546,9.849077203125,15.643793221435548Q9.766079903125,15.662893221435546,9.680914103985,15.662893221435546Q9.607045603125,15.662893221435546,9.534596203125,15.648473221435548Q9.462147203125,15.634063221435547,9.393901203125,15.605793221435547Q9.325656203125,15.577533221435548,9.264236203125,15.536493221435546Q9.202817203125,15.495453221435547,9.150584203125,15.443223221435547Q9.098351203125,15.390983221435548,9.057312203125,15.329563221435546Q9.016273203125,15.268143221435547,8.988004203125,15.199903221435548Q8.959736203125,15.131653221435547,8.945325203125,15.059203221435546Q8.930914203124999,14.986753221435546,8.930914203124999,14.912893221435546Q8.930914203124999,14.786803221435548,8.972144203125,14.667643221435547Q9.013374203125,14.548483221435546,9.091300203125,14.449363221435547Q9.633079703125,13.760203221435546,9.952229203125,12.794253221435547Q10.262150203125,11.856223221435547,10.278876203125,10.920393221435546Q10.295149203125,10.009923221435546,10.029399203125,9.387123221435546Q9.794384203125,8.836345221435547,9.388112203125,8.664069221435547Q9.286426203125,8.620949221435547,9.201487203125,8.550346221435547Q9.116548203125,8.479743221435546,9.055569203125,8.387650221435546Q8.994591203125,8.295558221435547,8.962749203125,8.189796221435547Q8.930908203125,8.084034221435546,8.930908203125,7.973583221435547Q8.930908203125,7.899714721435547,8.945319203124999,7.827265221435547Q8.959730203125,7.754816221435547,8.987998203125,7.686570221435547Q9.016267203125,7.618325221435547,9.057306203125,7.556905221435547Q9.098345203125,7.495486221435547,9.150578203125,7.443253221435547Q9.202811203125,7.3910202214355465,9.264230203125,7.349981221435547Q9.325650203125,7.308942221435547,9.393895203125,7.2806732214355465Q9.462141203125,7.252405221435547,9.534590203125,7.237994221435547Q9.607039703125,7.223583221435547,9.680908203125,7.223583221435547Q9.833354203125,7.223583221435547,9.973704203125,7.283097221435547L9.973977203125,7.283213221435547L9.974179203125,7.283299221435547Z" fill-rule="evenodd" fill="#414751" fill-opacity="1"/></g><g><path d="M3.247305732421875,4.633016014328003Q3.347005732421875,4.588952014328003,3.430045732421875,4.518328014328003Q3.513075732421875,4.447704014328003,3.572565732421875,4.356365014328003Q3.632065732421875,4.265025014328003,3.663095732421875,4.160529014328003Q3.694125732421875,4.056033014328003,3.694125732421875,3.947026014328003Q3.694125732421875,3.873157514328003,3.679715732421875,3.800708014328003Q3.665305732421875,3.7282590143280028,3.637035732421875,3.660013014328003Q3.608765732421875,3.591768014328003,3.567725732421875,3.530348014328003Q3.526685732421875,3.468929014328003,3.474455732421875,3.4166960143280027Q3.422225732421875,3.364463014328003,3.360805732421875,3.323424014328003Q3.299385732421875,3.282385014328003,3.231135732421875,3.254116014328003Q3.162895732421875,3.225848014328003,3.090445732421875,3.211437014328003Q3.017995732421875,3.197026014328003,2.944125732421875,3.197026014328003Q2.7857757324218753,3.197026014328003,2.640945732421875,3.261035014328003L2.640845732421875,3.261079014328003L2.640115732421875,3.2614050143280027Q1.818405732421875,3.624833014328003,1.495587732421875,4.298067014328003Q1.171530132421875,4.973886014328003,1.4076467324218749,5.839666014328003Q1.6112437324218751,6.586206014328003,0.690097732421875,7.416386014328003L0.689387732421875,7.417026014328004Q0.570980732421875,7.523696014328003,0.506178732421875,7.669296014328003Q0.441375732421875,7.814896014328003,0.441375732421875,7.974256014328003Q0.441375732421875,8.048126014328002,0.45578673242187495,8.120576014328002Q0.470197732421875,8.193026014328003,0.498465732421875,8.261276014328004Q0.526734732421875,8.329516014328004,0.567773732421875,8.390936014328002Q0.608812732421875,8.452356014328004,0.661045732421875,8.504586014328002Q0.713278732421875,8.556826014328003,0.774697732421875,8.597866014328002Q0.8361177324218749,8.638896014328003,0.904362732421875,8.667166014328004Q0.9726087324218751,8.695436014328003,1.045057732421875,8.709846014328003Q1.1175072324218749,8.724256014328002,1.191375732421875,8.724256014328002Q1.330428732421875,8.724256014328002,1.460239732421875,8.674416014328003Q1.590050732421875,8.624566014328003,1.6933637324218749,8.531496014328003Q3.301465732421875,7.082816014328003,2.854795732421875,5.444996014328003Q2.765735732421875,5.118456014328003,2.8481357324218752,4.946618014328003Q2.9314357324218747,4.772885014328003,3.246065732421875,4.633566014328003L3.247135732421875,4.633092014328003L3.247305732421875,4.633016014328003ZM2.2173557324218747,9.498976014328003L3.1667957324218747,11.307646014328004Q3.943965732421875,11.244056014328002,4.626795732421876,10.994506014328003Q4.917945732421876,10.888106014328002,5.217135732421875,10.961526014328003Q5.543565732421875,11.041646014328002,5.752375732421875,11.302006014328004Q6.761905732421875,12.560786014328002,6.880975732421875,14.020626014328004Q6.883455732421875,14.051026014328002,6.883455732421875,14.081526014328002Q6.883455732421875,14.155426014328002,6.869045732421875,14.227826014328002Q6.854635732421875,14.300326014328004,6.826365732421875,14.368526014328003Q6.798095732421875,14.436826014328004,6.757055732421875,14.498226014328003Q6.716015732421875,14.559626014328003,6.663785732421875,14.611926014328002Q6.611545732421875,14.664126014328003,6.550135732421875,14.705126014328004Q6.488715732421875,14.746226014328004,6.420465732421875,14.774426014328004Q6.352215732421875,14.802726014328004,6.279775732421875,14.817126014328004Q6.207325732421875,14.831526014328002,6.133455732421875,14.831526014328002Q6.063435732421875,14.831526014328002,5.994625732421875,14.818626014328004Q5.925815732421875,14.805626014328002,5.860595732421875,14.780126014328003Q5.795375732421875,14.754726014328003,5.735995732421875,14.717626014328003Q5.676625732421875,14.680526014328002,5.625135732421875,14.633026014328003Q5.573655732421875,14.585526014328003,5.531845732421875,14.529426014328003Q5.490035732421875,14.473226014328002,5.459345732421875,14.410326014328003Q5.428655732421875,14.347326014328003,5.410135732421875,14.279826014328004Q5.391625732421875,14.212326014328003,5.385935732421875,14.142526014328002Q5.316845732421875,13.295446014328004,4.7899257324218745,12.520936014328003Q3.898365732421875,12.791716014328003,2.902405732421875,12.824796014328003Q2.2799557324218753,12.845476014328003,1.989179732421875,12.291556014328004L0.8893987324218751,10.196506014328003L0.889106732421875,10.195946014328003Q0.803171732421875,10.032246014328003,0.803171732421875,9.847356014328003Q0.803171732421875,9.773486014328004,0.817582732421875,9.701036014328004Q0.831993732421875,9.628586014328004,0.860261732421875,9.560336014328003Q0.888529732421875,9.492096014328002,0.929568732421875,9.430676014328004Q0.9706087324218751,9.369256014328002,1.0228407324218751,9.317026014328004Q1.075073732421875,9.264786014328003,1.136493632421875,9.223746014328004Q1.197913052421875,9.182716014328003,1.266158732421875,9.154446014328002Q1.334404732421875,9.126176014328003,1.406853732421875,9.111766014328003Q1.479302732421875,9.097356014328003,1.553171732421875,9.097356014328003Q1.6557467324218749,9.097356014328003,1.754555732421875,9.124896014328003Q1.8533647324218752,9.152436014328003,1.941149732421875,9.205506014328002Q2.028933732421875,9.258566014328004,2.099246732421875,9.333246014328003Q2.169559732421875,9.407936014328003,2.2172357324218748,9.498756014328002L2.2173557324218747,9.498976014328003Z" fill-rule="evenodd" fill="#414751" fill-opacity="1"/></g><g><path d="M11.986181560058593,0.7432673348517418C12.065001560058594,0.5777876348517418,12.281891560058593,0.5828375348517418,12.354281560058594,0.7518373348517418L13.210541560058594,2.750740334851742L15.033281560058594,3.800380334851742C15.183751560058594,3.8870203348517416,15.179251560058594,4.125600334851741,15.025651560058595,4.205310334851742L13.208121560058594,5.148540334851742L12.255341560058593,7.150720334851742C12.176571560058594,7.3162403348517415,11.959691560058594,7.3112903348517415,11.887231560058593,7.142330334851742L11.031701560058593,5.147410334851742L9.208585560058594,4.096470334851742C9.058156260058594,4.009750334851741,9.062746660058593,3.7711703348517416,9.216376560058594,3.6915303348517416L11.029421560058594,2.751710334851742L11.986181560058593,0.7432673348517418Z" fill-rule="evenodd" fill="#414751" fill-opacity="1"/></g></g></g></svg>