<svg xmlns="http://www.w3.org/2000/svg" xmlns:xlink="http://www.w3.org/1999/xlink" fill="none" version="1.1" width="16" height="16" viewBox="0 0 16 16"><g><g><path d="M9.42645,4.077439375C9.42645,4.865229375,8.78777,5.503859375,8.00004,5.503859375C7.21223,5.503859375,6.57362,4.865229375,6.57362,4.077439375C6.57362,3.289649375,7.21223,2.6510293750000002,8.00004,2.6510293750000002C8.78777,2.6510293750000002,9.42645,3.289649375,9.42645,4.077439375ZM10.47116,5.503859375C10.71394,5.084239375,10.85287,4.597069375,10.85287,4.077439375C10.85287,2.501869375,9.57558,1.224609375,8.00004,1.224609375C6.42443,1.224609375,5.14717,2.501869375,5.14717,4.077439375C5.14717,4.597069375,5.2861,5.084239375,5.52883,5.503859375L3.05447,5.503859375C2.70695,5.503859375,2.4100200000000003,5.754339375,2.3514600000000003,6.096889375L1.0103811,13.942209375C0.9359222,14.377809375,1.271472,14.775609375,1.713398,14.775609375L14.2866,14.775609375C14.7285,14.775609375,15.0641,14.377809375,14.9896,13.942209375L13.6486,6.096889375C13.59,5.754339375,13.293,5.503859375,12.9456,5.503859375L10.47116,5.503859375ZM8.00004,6.930279375L12.3439,6.930279375L13.4412,13.349109375L2.55886,13.349109375L3.65611,6.930279375L8.00004,6.930279375Z" fill="#414751" fill-opacity="1"/></g></g></svg>