<svg xmlns="http://www.w3.org/2000/svg" xmlns:xlink="http://www.w3.org/1999/xlink" fill="none" version="1.1" width="16" height="16" viewBox="0 0 16 16"><g><g><path d="M5.187990703125,1.719970703125Q3.751490703125,1.719970703125,2.735730703125,2.735730703125Q1.719970703125,3.751490703125,1.719970703125,5.187990703125C1.719970703125,5.602200703125,1.384180703125,5.937990703125,0.969970703125,5.937990703125C0.771058703125,5.937990703125,0.580292703125,5.858970703125,0.43964070312500003,5.718320703125C0.298988503125,5.577660703125,0.219970703125,5.386900703125,0.219970703125,5.187990703125Q0.220270514125,3.129870703125,1.675070703125,1.675070703125Q3.130170703125,0.219970703125,5.187990703125,0.219970703125C5.602200703125,0.219970703125,5.937990703125,0.5557567031249999,5.937990703125,0.969970703125C5.937990703125,1.384180703125,5.602200703125,1.719970703125,5.187990703125,1.719970703125ZM14.324970703125,1.675070703125Q12.870170703125,0.220269799125,10.812870703125,0.219970703125C10.397770703125,0.219970703125,10.062010703125,0.5557567031249999,10.062010703125,0.969970703125C10.062010703125,1.384180703125,10.397770703125,1.719970703125,10.811970703125,1.719970703125Q12.248470703125,1.719970703125,13.264270703125,2.735730703125Q14.280070703125,3.751490703125,14.280070703125,5.187990703125C14.280070703125,5.602200703125,14.615770703125,5.937990703125,15.030070703125,5.937990703125C15.444270703125,5.937990703125,15.780070703125,5.602200703125,15.780070703125,5.187990703125Q15.780070703125,3.130170703125,14.324970703125,1.675070703125ZM9.114410703125,6.225460703125C8.975300703125,6.152570703125,8.979570703125,5.952010703125,9.121640703125,5.885070703125L10.210390703125,5.372010703125L10.786370703125,4.272770703125C10.859270703125,4.133660703125,11.059870703125,4.137900703125,11.126770703125,4.279970703125L11.641070703125,5.371460703125L12.738270703125,5.945800703125C12.877470703125,6.018640703125,12.873270703125,6.219190703125,12.731270703125,6.286190703125L11.639470703125,6.801270703125L11.066070703125,7.896670703125C10.993270703125,8.035810703125,10.792670703125,8.031690703125001,10.725670703125,7.889650703125L10.211880703125,6.800540703125L9.114410703125,6.225460703125ZM5.674440703125,5.356200703125C5.674440703125,4.941990703125,5.338650703125,4.606200703125,4.924440703125,4.606200703125C4.510220703125,4.606200703125,4.174440703125001,4.941990703125,4.174440703125001,5.356200703125L4.174440703125001,7.187040703125C4.174440703125001,7.601260703125,4.510220703125,7.937040703125,4.924440703125,7.937040703125C5.338650703125,7.937040703125,5.674440703125,7.601260703125,5.674440703125,7.187040703125L5.674440703125,5.356200703125ZM11.624770703125,9.933590703125C11.624770703125,10.035160703125,11.604170703125,10.135670703125,11.564070703125,10.229070703125Q11.083970703125,11.349370703125,10.211890703125,11.930770703125Q9.336380703125,12.514470703125,8.128490703125,12.514470703125Q6.920600703125,12.514470703125,6.045090703125,11.930770703125Q5.173020703125,11.349370703125,4.692870703125,10.229070703125C4.652860703125,10.135670703125,4.632230703125,10.035160703125,4.632230703125,9.933590703125C4.632230703125,9.519380703125,4.968020703125,9.183590703125,5.382230703125,9.183590703125C5.682250703125,9.183590703125,5.953410703125,9.362390703125,6.071590703125,9.638150703125Q6.376090703125,10.348670703125,6.877140703125,10.682670703125Q7.374770703125,11.014470703125,8.128490703125,11.014470703125Q8.882220703125,11.014470703125,9.379840703125,10.682670703125Q9.880900703125,10.348670703125,10.185400703125,9.638150703125C10.303570703125,9.362390703125,10.574770703125,9.183590703125,10.874770703125,9.183590703125C11.288970703125,9.183590703125,11.624770703125,9.519380703125,11.624770703125,9.933590703125ZM0.969970703125,10.062010703125C0.5557567031249999,10.062010703125,0.219970703125,10.397770703125,0.219970703125,10.811970703125Q0.220269799125,12.870170703125,1.675070703125,14.324970703125Q3.130170703125,15.780070703125,5.187990703125,15.780070703125C5.602200703125,15.780070703125,5.937990703125,15.444270703125,5.937990703125,15.030070703125C5.937990703125,14.615770703125,5.602200703125,14.280070703125,5.187990703125,14.280070703125Q3.751490703125,14.280070703125,2.735730703125,13.264270703125Q1.719970703125,12.248470703125,1.719970703125,10.811970703125C1.719970703125,10.397770703125,1.384180703125,10.062010703125,0.969970703125,10.062010703125ZM15.030070703125,10.062010703125C14.615770703125,10.062010703125,14.280070703125,10.397770703125,14.280070703125,10.811970703125Q14.280070703125,12.248470703125,13.264270703125,13.264270703125Q12.248470703125,14.280070703125,10.811970703125,14.280070703125C10.397770703125,14.280070703125,10.062010703125,14.615770703125,10.062010703125,15.030070703125C10.062010703125,15.444270703125,10.397770703125,15.780070703125,10.811970703125,15.780070703125Q12.869870703125,15.780070703125,14.324970703125,14.324970703125Q15.780070703125,12.869870703125,15.780070703125,10.811970703125C15.780070703125,10.397770703125,15.444270703125,10.062010703125,15.030070703125,10.062010703125Z" fill-rule="evenodd" fill="#000000" fill-opacity="1"/></g></g></svg>