<svg xmlns="http://www.w3.org/2000/svg" fill="none" width="16" height="16" viewBox="0 0 16 16"><defs><clipPath id="a"><rect width="16" height="16" rx="0"/></clipPath></defs><g clip-path="url(#a)"><path d="M8.603 4.499q-.406-.294-.406-.847 0-.043.002-.084.02-.337.201-.57H1.5a1 1 0 0 0-1 1v8a1 1 0 0 0 1 1h4.396l-.86.861a.75.75 0 0 0 1.06 1.06l1.826-1.825 1.825 1.826a.75.75 0 1 0 1.06-1.06l-.86-.861H14.5a1 1 0 0 0 1-1v-8c0-.055-.004-.108-.013-.16q-.076.538-.609.784L14 5.027V11.5H2v-7h6.603zm-5.31 2.097a.75.75 0 0 1 .75-.75h4.5a.75.75 0 0 1 0 1.5h-4.5a.75.75 0 0 1-.75-.75zM3.262 9.4a.75.75 0 0 1 .75-.75h6.977a.75.75 0 0 1 0 1.5H4.011a.75.75 0 0 1-.75-.75z" fill-rule="evenodd" fill="#000"/><path d="M9.178 3.46a.21.21 0 0 0 0 .382l1.697.783.783 1.697a.21.21 0 0 0 .381 0l.782-1.697 1.698-.783a.21.21 0 0 0 0-.381l-1.698-.782L12.04.98a.21.21 0 0 0-.381 0l-.783 1.698-1.697.782z" fill="#000"/></g></svg>